<?xml version="1.0" encoding="utf-8"?>
<!-- Generator: Adobe Illustrator 16.0.4, SVG Export Plug-In . SVG Version: 6.00 Build 0)  -->
<!DOCTYPE svg PUBLIC "-//W3C//DTD SVG 1.1//EN" "http://www.w3.org/Graphics/SVG/1.1/DTD/svg11.dtd">
<svg version="1.1" xmlns="http://www.w3.org/2000/svg" xmlns:xlink="http://www.w3.org/1999/xlink" x="0px" y="0px"
	 width="297.64px" height="97.141px" viewBox="0 0 297.64 97.141" enable-background="new 0 0 297.64 97.141" xml:space="preserve">
<g id="图层_2" display="none">
	<rect display="inline" width="595.28" height="841.89"/>
</g>
<g id="图层_1">
	<g>
		<g>
			<path fill="#4981CE" d="M127.052,33.75V21.373h4.049V39.94h-4.127l-10.445-12.431V39.94h-3.996V21.373h4.126L127.052,33.75z"/>
			<path fill="#4981CE" d="M151.184,21.373v4.022h-13.098v3.249h10.549v4.023h-10.549v3.25h13.098v4.022h-17.146V21.373H151.184z"/>
			<path fill="#4981CE" d="M153.736,21.398h14.73c1.049,0,1.947,0.374,2.707,1.123c0.752,0.749,1.133,1.646,1.133,2.694v4.798
				c0,1.047-0.381,1.944-1.133,2.694c-0.76,0.747-1.658,1.123-2.707,1.123l-10.729,0.026c0.049,0,0.078,0.053,0.078,0.152
				c-0.033,0-0.061-0.008-0.078-0.025v5.958h-4.001V21.398z M157.738,25.396v4.409h10.52v-4.409H157.738z"/>
			<path fill="#4981CE" d="M173.21,21.373h18.566v4.022h-7.271V39.94h-4.025V25.396h-7.27V21.373z"/>
			<path fill="#4981CE" d="M197.655,21.373v14.545h10.52V21.373h4.05v14.748c0,1.051-0.371,1.948-1.126,2.696
				c-0.746,0.748-1.641,1.123-2.692,1.123h-10.929c-1.07,0-1.974-0.37-2.711-1.109c-0.739-0.74-1.11-1.642-1.11-2.71V21.373H197.655
				z"/>
			<path fill="#4981CE" d="M229.579,33.75V21.373h4.048V39.94h-4.124l-10.443-12.431V39.94h-3.998V21.373h4.124L229.579,33.75z"/>
			<path fill="#4981CE" d="M253.714,21.373v4.022h-13.1v3.249h10.548v4.023h-10.548v3.25h13.1v4.022h-17.15V21.373H253.714z"/>
			<path fill="#4981CE" d="M130.97,59.854v1.728h-4.048v-1.523h-10.524v3.25h10.757c1.05,0,1.944,0.375,2.693,1.122
				c0.746,0.748,1.121,1.646,1.121,2.694v3.663c0,1.049-0.375,1.947-1.121,2.693c-0.749,0.75-1.644,1.124-2.693,1.124h-10.937
				c-1.045,0-1.944-0.369-2.693-1.109c-0.748-0.738-1.119-1.642-1.119-2.708v-1.726h3.992v1.521h10.524v-3.249h-10.704
				c-1.045,0-1.944-0.37-2.693-1.11c-0.748-0.738-1.119-1.642-1.119-2.706v-3.662c0-1.067,0.371-1.969,1.119-2.708
				c0.749-0.74,1.647-1.109,2.693-1.109h10.937c1.05,0,1.944,0.374,2.693,1.121C130.595,57.906,130.97,58.806,130.97,59.854z"/>
			<path fill="#4981CE" d="M150.93,56.038v4.021h-13.103v3.25h10.551v4.023h-10.551v3.249h13.103v4.022h-17.148V56.038H150.93z"/>
			<path fill="#4981CE" d="M171.998,60.059h-14.521v10.522h14.521v4.022h-14.695c-1.07,0-1.971-0.369-2.711-1.109
				c-0.74-0.738-1.109-1.642-1.109-2.708V59.854c0-1.067,0.369-1.969,1.109-2.708c0.74-0.74,1.641-1.109,2.711-1.109h14.695V60.059z
				"/>
			<path fill="#4981CE" d="M178.625,56.038v14.543h10.52V56.038h4.049v14.749c0,1.049-0.373,1.947-1.119,2.693
				c-0.753,0.75-1.646,1.124-2.695,1.124h-10.936c-1.064,0-1.969-0.369-2.709-1.109c-0.738-0.738-1.107-1.642-1.107-2.708V56.038
				H178.625z"/>
			<path fill="#4981CE" d="M214.571,59.879v4.797c0,1.049-0.38,1.948-1.135,2.694c-0.758,0.749-1.659,1.122-2.707,1.122h-0.184
				l4.025,4.745v1.367h-4.125l-5.133-6.111l-5.312,0.023c0.052,0,0.078,0.052,0.078,0.157c-0.036,0-0.062-0.01-0.078-0.026v5.957
				h-3.997V56.062h14.725c1.048,0,1.949,0.376,2.707,1.122C214.191,57.932,214.571,58.831,214.571,59.879z M200.001,60.059v4.41
				h10.523v-4.41H200.001z"/>
			<path fill="#4981CE" d="M217.329,74.604V56.038h4.023v18.566H217.329z"/>
			<path fill="#4981CE" d="M222.566,56.038h18.565v4.021h-7.273v14.545h-4.023V60.059h-7.269V56.038z"/>
			<path fill="#4981CE" d="M243.089,74.604V56.038h4.025v18.566H243.089z"/>
			<path fill="#4981CE" d="M265.937,56.038v4.021h-13.095v3.25h10.546v4.023h-10.546v3.249h13.095v4.022H248.79V56.038H265.937z"/>
			<path fill="#4981CE" d="M286.928,59.854v1.728h-4.048v-1.523h-10.52v3.25h10.751c1.05,0,1.948,0.375,2.695,1.122
				c0.746,0.748,1.121,1.646,1.121,2.694v3.663c0,1.049-0.375,1.947-1.121,2.693c-0.747,0.75-1.646,1.124-2.695,1.124h-10.931
				c-1.052,0-1.948-0.369-2.697-1.109c-0.751-0.738-1.119-1.642-1.119-2.708v-1.726h3.996v1.521h10.52v-3.249h-10.699
				c-1.052,0-1.948-0.37-2.697-1.11c-0.751-0.738-1.119-1.642-1.119-2.706v-3.662c0-1.067,0.368-1.969,1.119-2.708
				c0.749-0.74,1.646-1.109,2.697-1.109h10.931c1.05,0,1.948,0.374,2.695,1.121C286.553,57.906,286.928,58.806,286.928,59.854z"/>
		</g>
		<g>
			<linearGradient id="SVGID_1_" gradientUnits="userSpaceOnUse" x1="40.5186" y1="48.1138" x2="57.52" y2="48.1138">
				<stop  offset="0" style="stop-color:#6AA5FF"/>
				<stop  offset="1" style="stop-color:#0056A9"/>
			</linearGradient>
			<path fill-rule="evenodd" clip-rule="evenodd" fill="url(#SVGID_1_)" d="M50.62,43.327c-0.339,0-0.636,0-0.949,0
				c0,3.457,0,4.66,0,8.144c0.38-0.045,0.755-0.077,1.124-0.139c1.198-0.203,2.243-0.681,2.985-1.69
				c0.483-0.666,0.757-1.425,0.944-2.221c0.283-1.182,0.378-2.389,0.432-3.601c0.036-0.845,0.038,0.548,0.056-0.297
				c0-0.059,0-0.117,0-0.191c-0.312,0-0.607,0-0.948,0c0.546-1.468,1.079-2.902,1.629-4.392c0.553,1.481,1.083,2.913,1.627,4.372
				c-0.326,0-0.627,0-0.942,0c-0.007,0.094-0.009,0.167-0.014,0.234c-0.058,1.432-0.087,0.623-0.187,2.05
				c-0.081,1.185-0.314,2.351-0.755,3.468c-0.744,1.895-2.122,3.048-4.095,3.486c-0.517,0.117-1.052,0.159-1.578,0.233
				c-0.092,0.014-0.184,0.022-0.279,0.032c0,0.404,0,0.791,0,1.189c1.284,0,2.551,0,3.837,0c0,0.456,0,0.897,0,1.353
				c-1.281,0-2.549,0-3.841,0c0,0.647,0,1.279,0,1.931c-0.454,0-0.885,0-1.344,0c0-0.634,0-1.268,0-1.924c-1.294,0-2.566,0-3.854,0
				c0-0.463,0-0.895,0-1.349c1.272,0,2.54,0,3.841,0c0-0.387,0.007-0.755-0.009-1.122c0-0.038-0.126-0.088-0.198-0.101
				c-0.667-0.115-1.351-0.167-2-0.342c-2.018-0.553-3.27-1.911-3.899-3.875c-0.371-1.153-0.549-2.342-0.609-3.547
				c-0.063-1.238-0.076-0.238-0.11-1.479c-0.002-0.065-0.007-0.13-0.009-0.216c-0.312,0-0.616,0-0.955,0
				c0.544-1.463,1.074-2.893,1.632-4.394c0.555,1.49,1.088,2.924,1.629,4.381c-0.331,0-0.627,0-0.942,0
				c-0.006,0.076-0.016,0.139-0.013,0.202c0.018,1.569,0.02,0.899,0.207,2.459c0.104,0.856,0.268,1.699,0.571,2.508
				c0.584,1.567,1.712,2.481,3.337,2.796c0.443,0.085,0.893,0.13,1.362,0.198c0-3.484,0-4.693,0-8.155c-0.306,0-0.604,0-0.944,0
				c0.542-1.459,1.072-2.891,1.604-4.32c0.016-0.002,0.032-0.004,0.05-0.004C49.543,40.435,50.076,41.864,50.62,43.327z"/>
		</g>
		<g>
			<g>
				<linearGradient id="SVGID_2_" gradientUnits="userSpaceOnUse" x1="32.7817" y1="47.9893" x2="88.981" y2="47.9893">
					<stop  offset="0" style="stop-color:#6AA5FF"/>
					<stop  offset="1" style="stop-color:#0056A9"/>
				</linearGradient>
				<path fill-rule="evenodd" clip-rule="evenodd" fill="url(#SVGID_2_)" d="M60.88,19.889c-15.518,0-28.099,12.58-28.099,28.101
					l0,0c0-8.993,7.292-16.285,16.287-16.285c8.995,0,16.289,7.292,16.289,16.287s-7.293,16.285-16.289,16.285
					c-8.434,0-15.37-6.406-16.204-14.619c0.868,14.74,13.059,26.433,28.015,26.433c15.52,0,28.101-12.58,28.101-28.1
					C88.981,32.469,76.4,19.889,60.88,19.889z"/>
				<linearGradient id="SVGID_3_" gradientUnits="userSpaceOnUse" x1="32.7817" y1="48.8232" x2="32.8652" y2="48.8232">
					<stop  offset="0" style="stop-color:#6AA5FF"/>
					<stop  offset="1" style="stop-color:#0056A9"/>
				</linearGradient>
				<path fill-rule="evenodd" clip-rule="evenodd" fill="url(#SVGID_3_)" d="M32.782,47.991c0,0.562,0.027,1.117,0.083,1.666
					c-0.032-0.555-0.083-1.104-0.083-1.667V47.991z"/>
			</g>
			<g>
				<linearGradient id="SVGID_4_" gradientUnits="userSpaceOnUse" x1="65.2788" y1="45.8525" x2="88.8799" y2="45.8525">
					<stop  offset="0" style="stop-color:#6AA5FF"/>
					<stop  offset="1" style="stop-color:#0056A9"/>
				</linearGradient>
				<path fill-rule="evenodd" clip-rule="evenodd" fill="url(#SVGID_4_)" d="M88.88,46.838l-0.043-1.326l-0.045-1.324l-23.513,2.246
					c0.034,0.357,0.043,0.719,0.054,1.083L88.88,46.838z"/>
				<linearGradient id="SVGID_5_" gradientUnits="userSpaceOnUse" x1="64.9102" y1="42.0869" x2="88.502" y2="42.0869">
					<stop  offset="0" style="stop-color:#6AA5FF"/>
					<stop  offset="1" style="stop-color:#0056A9"/>
				</linearGradient>
				<path fill-rule="evenodd" clip-rule="evenodd" fill="url(#SVGID_5_)" d="M88.502,41.462l-0.233-1.306l-0.234-1.306L64.91,44.26
					c0.083,0.351,0.151,0.704,0.209,1.063L88.502,41.462z"/>
				<linearGradient id="SVGID_6_" gradientUnits="userSpaceOnUse" x1="64.2607" y1="38.4194" x2="87.356" y2="38.4194">
					<stop  offset="0" style="stop-color:#6AA5FF"/>
					<stop  offset="1" style="stop-color:#0056A9"/>
				</linearGradient>
				<path fill-rule="evenodd" clip-rule="evenodd" fill="url(#SVGID_6_)" d="M87.356,36.187l-0.42-1.261l-0.42-1.261l-22.254,8.489
					c0.13,0.337,0.263,0.672,0.371,1.021L87.356,36.187z"/>
				<linearGradient id="SVGID_7_" gradientUnits="userSpaceOnUse" x1="63.3438" y1="34.9277" x2="85.4609" y2="34.9277">
					<stop  offset="0" style="stop-color:#6AA5FF"/>
					<stop  offset="1" style="stop-color:#0056A9"/>
				</linearGradient>
				<path fill-rule="evenodd" clip-rule="evenodd" fill="url(#SVGID_7_)" d="M85.461,31.118l-0.598-1.191l-0.596-1.194
					L63.344,40.149c0.173,0.315,0.326,0.646,0.479,0.974L85.461,31.118z"/>
				<linearGradient id="SVGID_8_" gradientUnits="userSpaceOnUse" x1="62.1343" y1="31.6699" x2="82.856" y2="31.6699">
					<stop  offset="0" style="stop-color:#6AA5FF"/>
					<stop  offset="1" style="stop-color:#0056A9"/>
				</linearGradient>
				<path fill-rule="evenodd" clip-rule="evenodd" fill="url(#SVGID_8_)" d="M82.856,26.355l-0.762-1.101l-0.762-1.099
					L62.134,38.292c0.216,0.292,0.427,0.587,0.625,0.893L82.856,26.355z"/>
				<linearGradient id="SVGID_9_" gradientUnits="userSpaceOnUse" x1="60.6958" y1="28.7104" x2="79.5923" y2="28.7104">
					<stop  offset="0" style="stop-color:#6AA5FF"/>
					<stop  offset="1" style="stop-color:#0056A9"/>
				</linearGradient>
				<path fill-rule="evenodd" clip-rule="evenodd" fill="url(#SVGID_9_)" d="M79.592,21.988l-0.913-0.987l-0.915-0.987
					L60.696,36.596c0.256,0.261,0.501,0.533,0.737,0.811L79.592,21.988z"/>
				<linearGradient id="SVGID_10_" gradientUnits="userSpaceOnUse" x1="59.019" y1="26.1074" x2="75.7305" y2="26.1074">
					<stop  offset="0" style="stop-color:#6AA5FF"/>
					<stop  offset="1" style="stop-color:#0056A9"/>
				</linearGradient>
				<path fill-rule="evenodd" clip-rule="evenodd" fill="url(#SVGID_10_)" d="M75.73,18.104l-1.045-0.854l-1.047-0.854
					L59.019,35.117c0.292,0.225,0.573,0.46,0.848,0.703L75.73,18.104z"/>
				<linearGradient id="SVGID_11_" gradientUnits="userSpaceOnUse" x1="57.1538" y1="23.9038" x2="71.3521" y2="23.9038">
					<stop  offset="0" style="stop-color:#6AA5FF"/>
					<stop  offset="1" style="stop-color:#0056A9"/>
				</linearGradient>
				<path fill-rule="evenodd" clip-rule="evenodd" fill="url(#SVGID_11_)" d="M71.352,14.777l-1.162-0.704l-1.158-0.706
					L57.154,33.865c0.321,0.184,0.64,0.371,0.946,0.575L71.352,14.777z"/>
				<linearGradient id="SVGID_12_" gradientUnits="userSpaceOnUse" x1="55.1216" y1="22.1621" x2="66.5332" y2="22.1621">
					<stop  offset="0" style="stop-color:#6AA5FF"/>
					<stop  offset="1" style="stop-color:#0056A9"/>
				</linearGradient>
				<path fill-rule="evenodd" clip-rule="evenodd" fill="url(#SVGID_12_)" d="M66.533,12.073l-1.248-0.542l-1.25-0.542
					l-8.915,21.888c0.346,0.139,0.681,0.294,1.014,0.456L66.533,12.073z"/>
				<linearGradient id="SVGID_13_" gradientUnits="userSpaceOnUse" x1="52.9619" y1="20.8955" x2="61.377" y2="20.8955">
					<stop  offset="0" style="stop-color:#6AA5FF"/>
					<stop  offset="1" style="stop-color:#0056A9"/>
				</linearGradient>
				<path fill-rule="evenodd" clip-rule="evenodd" fill="url(#SVGID_13_)" d="M61.377,10.046L60.06,9.677l-1.315-0.369
					l-5.783,22.884c0.362,0.087,0.726,0.177,1.079,0.29L61.377,10.046z"/>
				<linearGradient id="SVGID_14_" gradientUnits="userSpaceOnUse" x1="50.7251" y1="20.1562" x2="55.9736" y2="20.1562">
					<stop  offset="0" style="stop-color:#6AA5FF"/>
					<stop  offset="1" style="stop-color:#0056A9"/>
				</linearGradient>
				<path fill-rule="evenodd" clip-rule="evenodd" fill="url(#SVGID_14_)" d="M55.974,8.731l-1.353-0.187l-1.355-0.189l-2.54,23.432
					c0.373,0.038,0.74,0.106,1.106,0.169L55.974,8.731z"/>
				<linearGradient id="SVGID_15_" gradientUnits="userSpaceOnUse" x1="47.6997" y1="19.9434" x2="50.4399" y2="19.9434">
					<stop  offset="0" style="stop-color:#6AA5FF"/>
					<stop  offset="1" style="stop-color:#0056A9"/>
				</linearGradient>
				<path fill-rule="evenodd" clip-rule="evenodd" fill="url(#SVGID_15_)" d="M49.57,31.729l0.87-23.572l-1.371-0.002L47.7,8.151
					l0.751,23.585c0.207-0.009,0.409-0.031,0.618-0.031C49.237,31.705,49.401,31.725,49.57,31.729z"/>
				<linearGradient id="SVGID_16_" gradientUnits="userSpaceOnUse" x1="42.1616" y1="20.1538" x2="47.2974" y2="20.1538">
					<stop  offset="0" style="stop-color:#6AA5FF"/>
					<stop  offset="1" style="stop-color:#0056A9"/>
				</linearGradient>
				<path fill-rule="evenodd" clip-rule="evenodd" fill="url(#SVGID_16_)" d="M44.872,8.335l-1.355,0.182l-1.355,0.18l4.032,23.275
					c0.364-0.065,0.73-0.128,1.104-0.169L44.872,8.335z"/>
				<linearGradient id="SVGID_17_" gradientUnits="userSpaceOnUse" x1="36.7534" y1="20.8906" x2="45.0679" y2="20.8906">
					<stop  offset="0" style="stop-color:#6AA5FF"/>
					<stop  offset="1" style="stop-color:#0056A9"/>
				</linearGradient>
				<path fill-rule="evenodd" clip-rule="evenodd" fill="url(#SVGID_17_)" d="M39.388,9.261l-1.317,0.362l-1.317,0.362l7.245,22.535
					c0.351-0.115,0.708-0.209,1.07-0.301L39.388,9.261z"/>
				<linearGradient id="SVGID_18_" gradientUnits="userSpaceOnUse" x1="31.584" y1="22.1475" x2="42.9189" y2="22.1475">
					<stop  offset="0" style="stop-color:#6AA5FF"/>
					<stop  offset="1" style="stop-color:#0056A9"/>
				</linearGradient>
				<path fill-rule="evenodd" clip-rule="evenodd" fill="url(#SVGID_18_)" d="M34.088,10.918l-1.252,0.535l-1.252,0.537
					l10.328,21.387c0.33-0.162,0.663-0.322,1.007-0.463L34.088,10.918z"/>
				<linearGradient id="SVGID_19_" gradientUnits="userSpaceOnUse" x1="26.7539" y1="23.8779" x2="40.9053" y2="23.8779">
					<stop  offset="0" style="stop-color:#6AA5FF"/>
					<stop  offset="1" style="stop-color:#0056A9"/>
				</linearGradient>
				<path fill-rule="evenodd" clip-rule="evenodd" fill="url(#SVGID_19_)" d="M29.08,13.271l-1.162,0.697l-1.164,0.701
					l13.212,19.815c0.303-0.207,0.622-0.387,0.939-0.573L29.08,13.271z"/>
				<linearGradient id="SVGID_20_" gradientUnits="userSpaceOnUse" x1="22.355" y1="26.0708" x2="39.0552" y2="26.0708">
					<stop  offset="0" style="stop-color:#6AA5FF"/>
					<stop  offset="1" style="stop-color:#0056A9"/>
				</linearGradient>
				<path fill-rule="evenodd" clip-rule="evenodd" fill="url(#SVGID_20_)" d="M24.459,16.274l-1.052,0.852l-1.052,0.848
					l15.864,17.894c0.272-0.243,0.548-0.479,0.836-0.704L24.459,16.274z"/>
				<linearGradient id="SVGID_21_" gradientUnits="userSpaceOnUse" x1="18.4756" y1="28.6592" x2="37.4009" y2="28.6592">
					<stop  offset="0" style="stop-color:#6AA5FF"/>
					<stop  offset="1" style="stop-color:#0056A9"/>
				</linearGradient>
				<path fill-rule="evenodd" clip-rule="evenodd" fill="url(#SVGID_21_)" d="M20.312,19.875l-0.917,0.982l-0.919,0.982
					L36.67,37.443c0.234-0.274,0.479-0.544,0.73-0.802L20.312,19.875z"/>
				<linearGradient id="SVGID_22_" gradientUnits="userSpaceOnUse" x1="15.1895" y1="31.6035" x2="35.9805" y2="31.6035">
					<stop  offset="0" style="stop-color:#6AA5FF"/>
					<stop  offset="1" style="stop-color:#0056A9"/>
				</linearGradient>
				<path fill-rule="evenodd" clip-rule="evenodd" fill="url(#SVGID_22_)" d="M16.725,23.997l-0.769,1.097l-0.766,1.095
					l20.175,13.021c0.195-0.303,0.402-0.596,0.616-0.883L16.725,23.997z"/>
				<linearGradient id="SVGID_23_" gradientUnits="userSpaceOnUse" x1="12.5596" y1="34.8447" x2="34.7871" y2="34.8447">
					<stop  offset="0" style="stop-color:#6AA5FF"/>
					<stop  offset="1" style="stop-color:#0056A9"/>
				</linearGradient>
				<path fill-rule="evenodd" clip-rule="evenodd" fill="url(#SVGID_23_)" d="M13.767,28.562l-0.604,1.189L12.56,30.94
					l21.753,10.187c0.153-0.326,0.301-0.652,0.475-0.964L13.767,28.562z"/>
				<linearGradient id="SVGID_24_" gradientUnits="userSpaceOnUse" x1="10.6377" y1="38.3174" x2="33.8789" y2="38.3174">
					<stop  offset="0" style="stop-color:#6AA5FF"/>
					<stop  offset="1" style="stop-color:#0056A9"/>
				</linearGradient>
				<path fill-rule="evenodd" clip-rule="evenodd" fill="url(#SVGID_24_)" d="M11.49,33.48l-0.425,1.261L10.638,36l22.875,7.154
					c0.105-0.344,0.238-0.674,0.366-1.007L11.49,33.48z"/>
				<linearGradient id="SVGID_25_" gradientUnits="userSpaceOnUse" x1="9.4644" y1="41.9673" x2="33.2358" y2="41.9673">
					<stop  offset="0" style="stop-color:#6AA5FF"/>
					<stop  offset="1" style="stop-color:#0056A9"/>
				</linearGradient>
				<path fill-rule="evenodd" clip-rule="evenodd" fill="url(#SVGID_25_)" d="M9.945,38.659l-0.24,1.304l-0.241,1.306l23.561,4.007
					c0.061-0.353,0.128-0.703,0.211-1.047L9.945,38.659z"/>
				<linearGradient id="SVGID_26_" gradientUnits="userSpaceOnUse" x1="9.0576" y1="45.7202" x2="32.8628" y2="45.7202">
					<stop  offset="0" style="stop-color:#6AA5FF"/>
					<stop  offset="1" style="stop-color:#0056A9"/>
				</linearGradient>
				<path fill-rule="evenodd" clip-rule="evenodd" fill="url(#SVGID_26_)" d="M9.161,43.995l-0.052,1.324l-0.052,1.324l23.751,0.803
					c0.011-0.36,0.02-0.719,0.054-1.072L9.161,43.995z"/>
				<linearGradient id="SVGID_27_" gradientUnits="userSpaceOnUse" x1="9.1587" y1="50.2998" x2="32.8652" y2="50.2998">
					<stop  offset="0" style="stop-color:#6AA5FF"/>
					<stop  offset="1" style="stop-color:#0056A9"/>
				</linearGradient>
				<path fill-rule="evenodd" clip-rule="evenodd" fill="url(#SVGID_27_)" d="M9.159,49.392l0.045,1.324l0.043,1.324l23.619-2.401
					c-0.036-0.355-0.043-0.717-0.054-1.079L9.159,49.392z"/>
				<linearGradient id="SVGID_28_" gradientUnits="userSpaceOnUse" x1="9.5361" y1="54.0601" x2="33.2471" y2="54.0601">
					<stop  offset="0" style="stop-color:#6AA5FF"/>
					<stop  offset="1" style="stop-color:#0056A9"/>
				</linearGradient>
				<path fill-rule="evenodd" clip-rule="evenodd" fill="url(#SVGID_28_)" d="M9.536,54.768l0.234,1.306l0.236,1.306l23.241-5.588
					c-0.083-0.346-0.155-0.697-0.216-1.052L9.536,54.768z"/>
				<linearGradient id="SVGID_29_" gradientUnits="userSpaceOnUse" x1="10.6826" y1="57.7168" x2="33.897" y2="57.7168">
					<stop  offset="0" style="stop-color:#6AA5FF"/>
					<stop  offset="1" style="stop-color:#0056A9"/>
				</linearGradient>
				<path fill-rule="evenodd" clip-rule="evenodd" fill="url(#SVGID_29_)" d="M10.683,60.041l0.42,1.261l0.42,1.263l22.374-8.685
					c-0.13-0.335-0.263-0.668-0.371-1.012L10.683,60.041z"/>
				<linearGradient id="SVGID_30_" gradientUnits="userSpaceOnUse" x1="12.5776" y1="61.1978" x2="34.8159" y2="61.1978">
					<stop  offset="0" style="stop-color:#6AA5FF"/>
					<stop  offset="1" style="stop-color:#0056A9"/>
				</linearGradient>
				<path fill-rule="evenodd" clip-rule="evenodd" fill="url(#SVGID_30_)" d="M12.578,65.11l0.598,1.193l0.596,1.191l21.045-11.63
					c-0.173-0.312-0.326-0.638-0.479-0.964L12.578,65.11z"/>
				<linearGradient id="SVGID_31_" gradientUnits="userSpaceOnUse" x1="15.1826" y1="64.4478" x2="36.0186" y2="64.4478">
					<stop  offset="0" style="stop-color:#6AA5FF"/>
					<stop  offset="1" style="stop-color:#0056A9"/>
				</linearGradient>
				<path fill-rule="evenodd" clip-rule="evenodd" fill="url(#SVGID_31_)" d="M15.183,69.875l0.762,1.1l0.765,1.101l19.31-14.372
					c-0.216-0.29-0.427-0.58-0.623-0.883L15.183,69.875z"/>
				<linearGradient id="SVGID_32_" gradientUnits="userSpaceOnUse" x1="18.4463" y1="67.3989" x2="37.4438" y2="67.3989">
					<stop  offset="0" style="stop-color:#6AA5FF"/>
					<stop  offset="1" style="stop-color:#0056A9"/>
				</linearGradient>
				<path fill-rule="evenodd" clip-rule="evenodd" fill="url(#SVGID_32_)" d="M18.446,74.24l0.915,0.987l0.913,0.989l17.17-16.831
					c-0.254-0.258-0.495-0.528-0.731-0.802L18.446,74.24z"/>
				<linearGradient id="SVGID_33_" gradientUnits="userSpaceOnUse" x1="22.3076" y1="69.9941" x2="39.1045" y2="69.9941">
					<stop  offset="0" style="stop-color:#6AA5FF"/>
					<stop  offset="1" style="stop-color:#0056A9"/>
				</linearGradient>
				<path fill-rule="evenodd" clip-rule="evenodd" fill="url(#SVGID_33_)" d="M22.308,78.124l1.045,0.856l1.047,0.854l14.704-18.982
					c-0.288-0.223-0.566-0.456-0.838-0.699L22.308,78.124z"/>
				<linearGradient id="SVGID_34_" gradientUnits="userSpaceOnUse" x1="26.6885" y1="72.1943" x2="40.9521" y2="72.1943">
					<stop  offset="0" style="stop-color:#6AA5FF"/>
					<stop  offset="1" style="stop-color:#0056A9"/>
				</linearGradient>
				<path fill-rule="evenodd" clip-rule="evenodd" fill="url(#SVGID_34_)" d="M26.688,81.45l1.16,0.706l1.158,0.706l11.946-20.766
					c-0.317-0.182-0.634-0.367-0.937-0.569L26.688,81.45z"/>
				<linearGradient id="SVGID_35_" gradientUnits="userSpaceOnUse" x1="31.5054" y1="73.9316" x2="42.9639" y2="73.9316">
					<stop  offset="0" style="stop-color:#6AA5FF"/>
					<stop  offset="1" style="stop-color:#0056A9"/>
				</linearGradient>
				<path fill-rule="evenodd" clip-rule="evenodd" fill="url(#SVGID_35_)" d="M31.505,84.154l1.248,0.542l1.25,0.542l8.961-22.156
					c-0.342-0.139-0.672-0.296-1.002-0.456L31.505,84.154z"/>
				<linearGradient id="SVGID_36_" gradientUnits="userSpaceOnUse" x1="36.6636" y1="75.1982" x2="45.106" y2="75.1982">
					<stop  offset="0" style="stop-color:#6AA5FF"/>
					<stop  offset="1" style="stop-color:#0056A9"/>
				</linearGradient>
				<path fill-rule="evenodd" clip-rule="evenodd" fill="url(#SVGID_36_)" d="M36.664,86.184l1.315,0.369l1.315,0.369l5.812-23.151
					c-0.359-0.09-0.717-0.182-1.068-0.294L36.664,86.184z"/>
				<linearGradient id="SVGID_37_" gradientUnits="userSpaceOnUse" x1="42.0649" y1="75.9424" x2="47.3242" y2="75.9424">
					<stop  offset="0" style="stop-color:#6AA5FF"/>
					<stop  offset="1" style="stop-color:#0056A9"/>
				</linearGradient>
				<path fill-rule="evenodd" clip-rule="evenodd" fill="url(#SVGID_37_)" d="M42.065,87.497l1.353,0.189l1.355,0.187l2.551-23.693
					c-0.371-0.038-0.732-0.104-1.097-0.167L42.065,87.497z"/>
				<linearGradient id="SVGID_38_" gradientUnits="userSpaceOnUse" x1="47.5986" y1="76.1602" x2="50.3389" y2="76.1602">
					<stop  offset="0" style="stop-color:#6AA5FF"/>
					<stop  offset="1" style="stop-color:#0056A9"/>
				</linearGradient>
				<path fill-rule="evenodd" clip-rule="evenodd" fill="url(#SVGID_38_)" d="M48.473,64.244L47.599,88.07l1.371,0.004l1.369,0.002
					l-0.755-23.828c-0.173,0.007-0.339,0.027-0.515,0.027C48.869,64.276,48.673,64.253,48.473,64.244z"/>
				<linearGradient id="SVGID_39_" gradientUnits="userSpaceOnUse" x1="50.7319" y1="75.958" x2="55.877" y2="75.958">
					<stop  offset="0" style="stop-color:#6AA5FF"/>
					<stop  offset="1" style="stop-color:#0056A9"/>
				</linearGradient>
				<path fill-rule="evenodd" clip-rule="evenodd" fill="url(#SVGID_39_)" d="M53.166,87.892l1.355-0.18l1.355-0.182l-4.046-23.506
					c-0.364,0.063-0.726,0.13-1.099,0.167L53.166,87.892z"/>
				<linearGradient id="SVGID_40_" gradientUnits="userSpaceOnUse" x1="52.9526" y1="75.2344" x2="61.2847" y2="75.2344">
					<stop  offset="0" style="stop-color:#6AA5FF"/>
					<stop  offset="1" style="stop-color:#0056A9"/>
				</linearGradient>
				<path fill-rule="evenodd" clip-rule="evenodd" fill="url(#SVGID_40_)" d="M58.65,86.966l1.317-0.36l1.317-0.364l-7.262-22.74
					c-0.351,0.112-0.71,0.2-1.07,0.288L58.65,86.966z"/>
				<linearGradient id="SVGID_41_" gradientUnits="userSpaceOnUse" x1="55.0972" y1="73.9858" x2="66.4546" y2="73.9858">
					<stop  offset="0" style="stop-color:#6AA5FF"/>
					<stop  offset="1" style="stop-color:#0056A9"/>
				</linearGradient>
				<path fill-rule="evenodd" clip-rule="evenodd" fill="url(#SVGID_41_)" d="M63.951,85.312l1.25-0.535l1.254-0.537L56.104,62.66
					c-0.331,0.16-0.663,0.312-1.007,0.45L63.951,85.312z"/>
				<linearGradient id="SVGID_42_" gradientUnits="userSpaceOnUse" x1="57.1152" y1="72.2627" x2="71.2847" y2="72.2627">
					<stop  offset="0" style="stop-color:#6AA5FF"/>
					<stop  offset="1" style="stop-color:#0056A9"/>
				</linearGradient>
				<path fill-rule="evenodd" clip-rule="evenodd" fill="url(#SVGID_42_)" d="M68.958,82.958l1.162-0.699l1.164-0.699l-13.23-19.993
					c-0.306,0.202-0.62,0.389-0.939,0.571L68.958,82.958z"/>
				<linearGradient id="SVGID_43_" gradientUnits="userSpaceOnUse" x1="58.9697" y1="70.0806" x2="75.6836" y2="70.0806">
					<stop  offset="0" style="stop-color:#6AA5FF"/>
					<stop  offset="1" style="stop-color:#0056A9"/>
				</linearGradient>
				<path fill-rule="evenodd" clip-rule="evenodd" fill="url(#SVGID_43_)" d="M73.582,79.954l1.05-0.85l1.052-0.85L59.812,60.208
					c-0.272,0.24-0.553,0.47-0.843,0.692L73.582,79.954z"/>
				<linearGradient id="SVGID_44_" gradientUnits="userSpaceOnUse" x1="60.6421" y1="67.498" x2="79.563" y2="67.498">
					<stop  offset="0" style="stop-color:#6AA5FF"/>
					<stop  offset="1" style="stop-color:#0056A9"/>
				</linearGradient>
				<path fill-rule="evenodd" clip-rule="evenodd" fill="url(#SVGID_44_)" d="M77.727,76.355l0.919-0.982l0.917-0.984l-18.19-15.748
					c-0.238,0.274-0.477,0.546-0.73,0.805L77.727,76.355z"/>
				<linearGradient id="SVGID_45_" gradientUnits="userSpaceOnUse" x1="62.0737" y1="64.5601" x2="82.8516" y2="64.5601">
					<stop  offset="0" style="stop-color:#6AA5FF"/>
					<stop  offset="1" style="stop-color:#0056A9"/>
				</linearGradient>
				<path fill-rule="evenodd" clip-rule="evenodd" fill="url(#SVGID_45_)" d="M81.314,72.232l0.767-1.097l0.771-1.097L62.701,56.888
					c-0.198,0.301-0.411,0.591-0.627,0.879L81.314,72.232z"/>
				<linearGradient id="SVGID_46_" gradientUnits="userSpaceOnUse" x1="63.2808" y1="61.3203" x2="85.479" y2="61.3203">
					<stop  offset="0" style="stop-color:#6AA5FF"/>
					<stop  offset="1" style="stop-color:#0056A9"/>
				</linearGradient>
				<path fill-rule="evenodd" clip-rule="evenodd" fill="url(#SVGID_46_)" d="M84.272,67.667l0.604-1.189l0.603-1.191L63.766,54.973
					c-0.153,0.326-0.31,0.649-0.485,0.962L84.272,67.667z"/>
				<linearGradient id="SVGID_47_" gradientUnits="userSpaceOnUse" x1="64.2134" y1="57.8452" x2="87.4009" y2="57.8452">
					<stop  offset="0" style="stop-color:#6AA5FF"/>
					<stop  offset="1" style="stop-color:#0056A9"/>
				</linearGradient>
				<path fill-rule="evenodd" clip-rule="evenodd" fill="url(#SVGID_47_)" d="M86.546,62.748l0.427-1.259l0.427-1.259l-22.816-7.287
					c-0.11,0.344-0.238,0.679-0.371,1.012L86.546,62.748z"/>
				<linearGradient id="SVGID_48_" gradientUnits="userSpaceOnUse" x1="64.8721" y1="54.1924" x2="88.5762" y2="54.1924">
					<stop  offset="0" style="stop-color:#6AA5FF"/>
					<stop  offset="1" style="stop-color:#0056A9"/>
				</linearGradient>
				<path fill-rule="evenodd" clip-rule="evenodd" fill="url(#SVGID_48_)" d="M88.093,57.569l0.241-1.304l0.243-1.304l-23.481-4.145
					c-0.061,0.357-0.137,0.706-0.223,1.052L88.093,57.569z"/>
				<linearGradient id="SVGID_49_" gradientUnits="userSpaceOnUse" x1="65.2632" y1="50.4365" x2="88.981" y2="50.4365">
					<stop  offset="0" style="stop-color:#6AA5FF"/>
					<stop  offset="1" style="stop-color:#0056A9"/>
				</linearGradient>
				<path fill-rule="evenodd" clip-rule="evenodd" fill="url(#SVGID_49_)" d="M65.324,48.639c-0.013,0.362-0.022,0.724-0.061,1.077
					l23.614,2.52l0.052-1.326l0.052-1.324L65.324,48.639z"/>
			</g>
		</g>
	</g>
</g>
</svg>
